<?xml version="1.0" encoding="UTF-8"?>
<svg xmlns="http://www.w3.org/2000/svg" version="1.1" xmlns:xlink="http://www.w3.org/1999/xlink" viewBox="0 0 168.14 100">
  <!-- Generator: Adobe Illustrator 29.3.1, SVG Export Plug-In . SVG Version: 2.1.0 Build 151)  -->
  <defs>
    <style>
      .st0 {
        fill: url(#linear-gradient4);
      }

      .st0, .st1, .st2, .st3, .st4 {
        mix-blend-mode: multiply;
      }

      .st1 {
        fill: url(#linear-gradient6);
      }

      .st5 {
        fill: #cca35e;
      }

      .st2 {
        fill: url(#linear-gradient5);
      }

      .st6 {
        fill: url(#linear-gradient1);
      }

      .st6, .st7 {
        opacity: .8;
      }

      .st8 {
        isolation: isolate;
      }

      .st9 {
        fill: #0c5596;
      }

      .st7 {
        fill: url(#linear-gradient2);
      }

      .st3 {
        fill: url(#linear-gradient3);
      }

      .st4 {
        fill: url(#linear-gradient);
      }

      .st10 {
        fill: url(#linear-gradient7);
        mix-blend-mode: hard-light;
      }
    </style>
    <linearGradient id="linear-gradient" x1="76.54" y1="21.52" x2="93.47" y2="21.52" gradientUnits="userSpaceOnUse">
      <stop offset="0" stop-color="#e0851a"/>
      <stop offset="1" stop-color="#fff" stop-opacity="0"/>
    </linearGradient>
    <linearGradient id="linear-gradient1" x1="68.66" y1="-1.95" x2="82.52" y2="17.52" gradientTransform="translate(-.15 2.64) rotate(-1.64)" gradientUnits="userSpaceOnUse">
      <stop offset="0" stop-color="#fff"/>
      <stop offset="1" stop-color="#fff" stop-opacity="0"/>
    </linearGradient>
    <linearGradient id="linear-gradient2" x1="69.49" y1="-.78" x2="83.36" y2="18.69" xlink:href="#linear-gradient1"/>
    <linearGradient id="linear-gradient3" x1="88.68" y1="36.17" x2="79.42" y2="16.52" gradientUnits="userSpaceOnUse">
      <stop offset=".22" stop-color="#e0851a"/>
      <stop offset="1" stop-color="#fff" stop-opacity="0"/>
    </linearGradient>
    <linearGradient id="linear-gradient4" x1="102.92" y1="49.94" x2="68.52" y2="38.47" gradientTransform="translate(-.15 2.64) rotate(-1.64)" xlink:href="#linear-gradient"/>
    <linearGradient id="linear-gradient5" x1="90.43" y1="37.86" x2="87" y2="18.56" gradientTransform="translate(-.15 2.64) rotate(-1.64)" gradientUnits="userSpaceOnUse">
      <stop offset="0" stop-color="#e0851a"/>
      <stop offset=".91" stop-color="#fff" stop-opacity="0"/>
    </linearGradient>
    <linearGradient id="linear-gradient6" x1="102.92" y1="49.94" x2="68.52" y2="38.47" gradientTransform="translate(-.15 2.64) rotate(-1.64)" xlink:href="#linear-gradient"/>
    <linearGradient id="linear-gradient7" x1="63.74" y1="-15.88" x2="82.4" y2="30.26" gradientTransform="translate(0 1.67) rotate(-.78)" gradientUnits="userSpaceOnUse">
      <stop offset="0" stop-color="#fff"/>
      <stop offset="1" stop-color="#fff" stop-opacity="0"/>
    </linearGradient>
  </defs>
  <g class="st8">
    <g id="Layer_1">
      <g>
        <g>
          <path class="st5" d="M18.05,77.43h-3.95v-11.85h-3.26v-3.34h10.48v3.34h-3.26v11.85Z"/>
          <path class="st5" d="M41.82,77.43h-4.92l-3.73-5.84h-.04v5.84h-3.95v-15.19h5.9c3,0,5.28,1.43,5.28,4.67,0,2.09-1.17,3.91-3.32,4.29l4.77,6.23ZM33.14,69.05h.38c1.29,0,2.74-.24,2.74-1.89s-1.45-1.89-2.74-1.89h-.38v3.79Z"/>
          <path class="st5" d="M53.21,74.79l-1.05,2.64h-4.19l5.84-15.19h4.31l5.72,15.19h-4.21l-.99-2.64h-5.44ZM55.97,66.93h-.04l-1.63,4.84h3.28l-1.61-4.84Z"/>
          <path class="st5" d="M75.67,71.46l3.69-9.23h4.29l-6.49,15.19h-3.06l-6.39-15.19h4.29l3.67,9.23Z"/>
          <path class="st5" d="M95.03,65.58v2.54h4.45v3.34h-4.45v2.62h4.69v3.34h-8.64v-15.19h8.64v3.34h-4.69Z"/>
          <path class="st5" d="M112.56,74.08h4.73v3.34h-8.68v-15.19h3.95v11.85Z"/>
          <path class="st5" d="M128.98,74.08h4.73v3.34h-8.68v-15.19h3.95v11.85Z"/>
          <g>
            <path class="st5" d="M77.72,93.28h-.82v-6.59h.82v6.59Z"/>
            <path class="st5" d="M80.27,86.38l4.95,5.18v-4.87h.82v6.86l-4.95-5.18v4.91h-.82v-6.91Z"/>
            <path class="st5" d="M90.39,93.28h-.82v-5.84h-1.56v-.75h3.95v.75h-1.56v5.84Z"/>
            <path class="st5" d="M94,86.69h3.54v.75h-2.72v1.84h2.64v.75h-2.64v2.49h2.72v.75h-3.54v-6.59Z"/>
            <path class="st5" d="M104.06,93.28h-1l-1.94-2.79h-.34v2.79h-.82v-6.59h1c.59,0,1.22,0,1.74.31.55.32.87.94.87,1.57,0,.94-.63,1.73-1.58,1.84l2.08,2.87ZM100.78,89.81h.26c.84,0,1.75-.16,1.75-1.21s-.98-1.18-1.79-1.18h-.22v2.39Z"/>
            <path class="st5" d="M106.02,86.38l4.95,5.18v-4.87h.82v6.86l-4.95-5.18v4.91h-.82v-6.91Z"/>
            <path class="st5" d="M115.3,91.63l-.75,1.65h-.88l3.15-6.87,3.15,6.87h-.88l-.75-1.65h-3.02ZM116.81,88.21l-1.17,2.67h2.34l-1.17-2.67Z"/>
            <path class="st5" d="M122.99,93.28h-.82v-5.84h-1.56v-.75h3.95v.75h-1.56v5.84Z"/>
            <path class="st5" d="M127.4,93.28h-.82v-6.59h.82v6.59Z"/>
            <path class="st5" d="M136.47,89.99c0,1.96-1.55,3.44-3.45,3.44s-3.45-1.48-3.45-3.44,1.56-3.44,3.45-3.44,3.45,1.55,3.45,3.44ZM135.65,89.99c0-1.45-1.08-2.67-2.63-2.67s-2.63,1.22-2.63,2.67,1.21,2.67,2.63,2.67,2.63-1.16,2.63-2.67Z"/>
            <path class="st5" d="M138.59,86.38l4.95,5.18v-4.87h.82v6.86l-4.95-5.18v4.91h-.82v-6.91Z"/>
            <path class="st5" d="M147.87,91.63l-.75,1.65h-.88l3.15-6.87,3.15,6.87h-.88l-.75-1.65h-3.02ZM149.38,88.21l-1.17,2.67h2.34l-1.17-2.67Z"/>
            <path class="st5" d="M155.3,92.53h2v.75h-2.82v-6.59h.82v5.84Z"/>
          </g>
          <path class="st5" d="M157.3,69.4c0,4.99-3.48,8.5-8.28,8.5s-8.28-3.52-8.28-8.5c0-4.66,3.97-7.93,8.28-7.93s8.28,3.27,8.28,7.93ZM144.79,69.42c0,2.66,1.91,4.6,4.23,4.6s4.23-1.94,4.23-4.6c0-2.13-1.91-4.07-4.23-4.07s-4.23,1.94-4.23,4.07Z"/>
        </g>
        <g>
          <path class="st9" d="M90.51,39.53l3.42-4.72,1.07.46c-.08-5.63-5.36-9.01-11.43-10.99-.06.09-.13.17-.19.26-.25.35-.49.72-.72,1.1-.05.08-.1.16-.14.24,0,0,0,.01-.01.02-.06.11-.12.22-.18.32-.06.1-.11.2-.17.3-.22.4-.43.81-.63,1.23-.05.1-.1.21-.14.31-.23.49-.44,1-.65,1.51-.04.09-.07.18-.11.28-.04.11-.09.22-.13.33-.04.11-.08.21-.12.32,0,0,0,.02,0,.03-.06.17-.13.34-.18.52-.07.2-.14.41-.21.61-.02.06-.04.11-.05.17-.06.17-.11.35-.17.53-.02.05-.03.1-.05.14-.06.2-.12.4-.18.6-.07.25-.14.5-.21.75-.06.23-.12.45-.18.68-.04.15-.08.3-.12.44,0,.01,0,.03-.01.04-.04.14-.08.28-.12.42-.04.13-.08.25-.12.38-.09.29-.19.56-.29.84-.04.1-.07.2-.11.3,0,.02-.02.04-.02.07-.04.1-.08.2-.12.3-.05.13-.1.26-.16.38-.03.07-.05.13-.08.19-.18.42-.38.83-.58,1.22.99.26,1.85.43,2.49.55,1.87.36,3.46,1.13,4.75,2.16,1.63,1.3,2.78,3.02,3.44,4.86.15.42.27.84.37,1.27.11-.09.23-.18.34-.27,0,0,.01-.01.02-.02.07-.05.13-.11.19-.16.4-2.69,1.5-7.97,1.5-7.97Z"/>
          <path class="st5" d="M93.44,30.38c-.19,1.56-2.63,2.97-5.27,4.05-3.26,1.33-6.82,2.17-6.82,2.17,0,0-10.95-9.82.2-30.15,0,.02,0,.04.01.05,1.26,6.34,4.29,10.23,5.95,12.31,1.66,2.09,6.37,8.09,5.93,11.57Z"/>
          <path class="st4" d="M93.44,30.38c-.19,1.56-2.63,2.97-5.27,4.05-3.26,1.33-6.82,2.17-6.82,2.17,0,0-10.95-9.82.2-30.15,0,.02,0,.04.01.05,1.26,6.34,4.29,10.23,5.95,12.31,1.66,2.09,6.37,8.09,5.93,11.57Z"/>
          <path class="st6" d="M93.44,30.38c-.19,1.56-2.63,2.97-5.27,4.05-1.17-3.47-2.78-7.3-4.79-9.88-3.29-4.22-2.5-13.35-1.82-18.05,1.26,6.34,4.29,10.23,5.95,12.31,1.66,2.09,6.37,8.09,5.93,11.57Z"/>
          <path class="st6" d="M93.44,30.38c-.19,1.56-2.63,2.97-5.27,4.05-1.17-3.47-2.78-7.3-4.79-9.88-3.29-4.22-2.5-13.35-1.82-18.05,1.26,6.34,4.29,10.23,5.95,12.31,1.66,2.09,6.37,8.09,5.93,11.57Z"/>
          <path class="st7" d="M93.44,30.38c-.19,1.56-2.63,2.97-5.27,4.05-1.17-3.47-2.78-7.3-4.79-9.88-3.29-4.22-2.5-13.35-1.82-18.05,1.26,6.34,4.29,10.23,5.95,12.31,1.66,2.09,6.37,8.09,5.93,11.57Z"/>
          <path class="st3" d="M93.44,30.38c-.19,1.56-2.63,2.97-5.27,4.05-3.26,1.33-6.82,2.17-6.82,2.17,0,0-10.95-9.82.2-30.15,0,.02,0,.04.01.05,1.26,6.34,4.29,10.23,5.95,12.31,1.66,2.09,6.37,8.09,5.93,11.57Z"/>
          <path class="st5" d="M92.43,19.93c-3.8-.44-6.68,1.41-8.85,4.35-.06.09-.13.17-.19.26-.25.35-.49.72-.72,1.1-.05.08-.1.16-.14.24,0,0,0,.01-.01.02-.06.11-.12.22-.18.32-.06.1-.11.2-.17.3-.22.4-.43.81-.63,1.23-.05.1-.1.21-.14.31-.23.49-.44,1-.65,1.51-.04.09-.07.18-.11.28-.04.11-.09.22-.13.33-.04.11-.08.21-.12.32,0,0,0,.02,0,.03-.06.17-.13.34-.18.52-.07.2-.14.41-.21.61-.02.06-.04.11-.05.17-.06.17-.11.35-.17.53-.02.05-.03.1-.05.14-.06.2-.12.4-.18.6-.07.25-.14.5-.21.75-.06.23-.12.45-.18.68-.04.15-.08.3-.12.44,0,.01,0,.03-.01.04-.04.14-.08.28-.12.42-.04.13-.08.25-.12.38-.09.29-.19.56-.29.84-.04.1-.07.2-.11.3,0,.02-.02.04-.02.07-.04.1-.08.2-.12.3-.05.13-.1.26-.16.38-.03.06-.05.13-.08.19-.18.42-.38.83-.58,1.22.99.26,1.85.43,2.49.55,1.87.36,3.46,1.13,4.75,2.16,1.63,1.3,2.78,3.02,3.44,4.86.15.42.27.84.37,1.27.11-.09.23-.18.34-.27,0,0,.01-.01.02-.02.07-.06.15-.12.22-.18.26-1.51.73-4.12.73-4.12l2.13-2.92,2.42-1.1c.62-1.75.95-3.3,1.16-4.3,1.01-4.81,4.71-7.7,8.61-8.46-4.62-4.3-8.47-6.29-11.67-6.66Z"/>
          <path class="st5" d="M88.46,47.95s-.06.05-.09.07c-.03-.07-.06-.14-.09-.21-.79-1.8-5-.77-6.72-1.95-1.36-.94.06-1.53-1.83-1.76-.64-.08-1.17.07-2.18-.12-.23-.04-2.65-.22-2.89-.27.26-.4,2.22-3.65,2.46-4.09.04-.08.09-.16.13-.23.05-.1.11-.2.16-.3.99.26,1.85.43,2.49.55,1.87.36,3.46,1.13,4.75,2.16,1.63,1.3,2.78,3.02,3.44,4.86.15.42.27.84.37,1.27Z"/>
          <path class="st5" d="M88.28,47.81c.03.07.06.14.09.21,0,0,0,0,0,0-.11.09-.23.17-.35.25-.07.05-.15.11-.22.16-.08.05-.15.1-.23.15-.23.15-.47.3-.72.44-.08.05-.16.09-.25.14-.17.09-.34.18-.51.27-.09.04-.18.09-.26.13-.09.04-.18.08-.27.12-.29.13-.59.25-.89.36-.15.06-.31.11-.46.16-.12.04-.25.08-.37.12-.1.03-.19.06-.29.08-.1.03-.2.06-.31.09-.1.03-.21.05-.31.08-.11.03-.21.05-.32.07-.11.02-.22.05-.32.07-.11.02-.22.04-.33.06-.22.04-.45.08-.68.11-.11.02-.23.03-.35.05-.12.01-.23.03-.35.04-.12.01-.24.02-.35.03-.07,0-.15.01-.22.02-.1,0-.19.01-.29.02-.07,0-.15,0-.23.01-.12,0-.25.01-.37.01-3.34.1-7.36-.57-12.21-2.34,0,0,.1-.03.28-.11.08-.03.18-.07.29-.12.05-.02.11-.05.16-.07.44-.19,1.04-.48,1.75-.89.05-.03.11-.06.16-.09,1.42-.84,3.23-2.14,4.94-4.06.06-.06.12-.13.17-.2.08-.09.15-.18.23-.27.08-.09.15-.18.23-.28.16-.2.33-.41.49-.63.06-.08.12-.16.18-.25.06-.08.11-.15.17-.23.04-.06.09-.12.13-.19.06-.09.12-.17.18-.26.04-.07.09-.14.13-.2.24.05.48.1.7.14,1.01.19,1.88.29,2.52.37,1.89.23,3.53.88,4.9,1.81,1.72,1.18,2.99,2.81,3.78,4.6Z"/>
          <path class="st0" d="M88.63,47.77s-.06.05-.09.07c-.03-.07-.06-.14-.09-.21-.79-1.8-1.98-3.56-3.78-4.6-4.88-2.83-9.16-.52-9.4-.57.26-.4,1.78-2.57,2.02-3,.04-.08.09-.16.13-.23.05-.1.11-.2.16-.3.99.26,1.85.43,2.49.55,1.87.36,3.46,1.13,4.75,2.16,1.63,1.3,2.78,3.02,3.44,4.86.15.42.27.84.37,1.27Z"/>
          <path class="st2" d="M95.36,35.38c-.01.07-.03.14-.04.21-.24,1.13-.63,2.95-1.41,4.96-.1.18-.21.36-.32.54.69-1.52,1.08-2.92,1.21-4.21.62-6.28-4.94-9.96-11.39-12.06.38-1.28,4.5-4.44,5.3-4.47,5.62,2.84,6.57,9.82,6.66,15.03Z"/>
          <path class="st2" d="M95.36,35.38c-.01.07-.03.14-.04.21-.24,1.13-.63,2.95-1.41,4.96-.1.18-.21.36-.32.54.69-1.52,1.08-2.92,1.21-4.21.62-6.28-4.94-9.96-11.39-12.06.38-1.28,4.5-4.44,5.3-4.47,5.62,2.84,6.57,9.82,6.66,15.03Z"/>
          <path class="st1" d="M88.63,47.77s-.06.05-.09.07c-.03-.07-.06-.14-.09-.21-.79-1.8-1.98-3.56-3.78-4.6-4.88-2.83-9.16-.52-9.4-.57.26-.4,1.78-2.57,2.02-3,.04-.08.09-.16.13-.23.05-.1.11-.2.16-.3.99.26,1.85.43,2.49.55,1.87.36,3.46,1.13,4.75,2.16,1.63,1.3,2.78,3.02,3.44,4.86.15.42.27.84.37,1.27Z"/>
          <path class="st5" d="M95.21,36.39c-.15,1.29-.55,2.68-1.27,4.19-.01.03-.03.06-.04.08-.97,2.01-2.48,4.23-4.65,6.67t0,0c-.35.28-.37.3-.71.56-.01-.06.02.06,0,0-.09-.43-.21-.85-.35-1.28-.63-1.86-1.76-3.59-3.37-4.91-1.28-1.05-2.85-1.84-4.72-2.23-.64-.13-1.49-.32-2.48-.59-5.99-1.65-16.81-6.6-12.64-23.44.35-1.43.82-2.94,1.4-4.54,0,0,.03.1.11.28.22.55.78,1.84,1.84,3.4,2.01,2.96,5.77,6.88,12.27,8.55,1.15.3,2.3.63,3.42,1.02,6.41,2.2,11.91,5.96,11.2,12.23Z"/>
          <path class="st10" d="M95.21,36.39c-2.36-2-6.12-3.62-12.01-4.25-17.29-1.83-17.24-16.14-16.72-20.96.62,1.58,4.18,9.4,14.11,11.95,7.71,1.98,15.46,5.88,14.62,13.25Z"/>
          <path class="st10" d="M95.21,36.39c-2.36-2-6.12-3.62-12.01-4.25-17.29-1.83-17.24-16.14-16.72-20.96.62,1.58,4.18,9.4,14.11,11.95,7.71,1.98,15.46,5.88,14.62,13.25Z"/>
        </g>
      </g>
    </g>
  </g>
</svg>