<?xml version="1.0" encoding="UTF-8"?>
<svg xmlns="http://www.w3.org/2000/svg" version="1.1" xmlns:xlink="http://www.w3.org/1999/xlink" viewBox="0 0 567.96 126.65">
  <!-- Generator: Adobe Illustrator 29.3.1, SVG Export Plug-In . SVG Version: 2.1.0 Build 151)  -->
  <defs>
    <style>
      .st0 {
        fill: url(#linear-gradient4);
      }

      .st0, .st1, .st2, .st3, .st4 {
        mix-blend-mode: multiply;
      }

      .st1 {
        fill: url(#linear-gradient6);
      }

      .st5 {
        fill: #cca35e;
      }

      .st2 {
        fill: url(#linear-gradient5);
      }

      .st6 {
        fill: url(#linear-gradient1);
      }

      .st6, .st7 {
        opacity: .8;
      }

      .st8 {
        isolation: isolate;
      }

      .st9 {
        fill: #0c5596;
      }

      .st7 {
        fill: url(#linear-gradient2);
      }

      .st3 {
        fill: url(#linear-gradient3);
      }

      .st4 {
        fill: url(#linear-gradient);
      }

      .st10 {
        fill: url(#linear-gradient7);
        mix-blend-mode: hard-light;
      }
    </style>
    <linearGradient id="linear-gradient" x1="469.07" y1="44.86" x2="512.3" y2="44.86" gradientUnits="userSpaceOnUse">
      <stop offset="0" stop-color="#e0851a"/>
      <stop offset="1" stop-color="#fff" stop-opacity="0"/>
    </linearGradient>
    <linearGradient id="linear-gradient1" x1="449.25" y1="-8.87" x2="484.66" y2="40.84" gradientTransform="translate(-.46 8.36) rotate(-1.64)" gradientUnits="userSpaceOnUse">
      <stop offset="0" stop-color="#fff"/>
      <stop offset="1" stop-color="#fff" stop-opacity="0"/>
    </linearGradient>
    <linearGradient id="linear-gradient2" x1="451.38" y1="-5.87" x2="486.79" y2="43.83" xlink:href="#linear-gradient1"/>
    <linearGradient id="linear-gradient3" x1="500.06" y1="82.26" x2="476.43" y2="32.1" gradientUnits="userSpaceOnUse">
      <stop offset=".22" stop-color="#e0851a"/>
      <stop offset="1" stop-color="#fff" stop-opacity="0"/>
    </linearGradient>
    <linearGradient id="linear-gradient4" x1="536.74" y1="123.62" x2="448.91" y2="94.34" gradientTransform="translate(-.46 8.36) rotate(-1.64)" xlink:href="#linear-gradient"/>
    <linearGradient id="linear-gradient5" x1="504.84" y1="92.78" x2="496.08" y2="43.5" gradientTransform="translate(-.46 8.36) rotate(-1.64)" gradientUnits="userSpaceOnUse">
      <stop offset="0" stop-color="#e0851a"/>
      <stop offset=".91" stop-color="#fff" stop-opacity="0"/>
    </linearGradient>
    <linearGradient id="linear-gradient6" x1="536.74" y1="123.62" x2="448.91" y2="94.34" gradientTransform="translate(-.46 8.36) rotate(-1.64)" xlink:href="#linear-gradient"/>
    <linearGradient id="linear-gradient7" x1="436.66" y1="-47.03" x2="484.32" y2="70.76" gradientTransform="translate(-.17 4.4) rotate(-.78)" gradientUnits="userSpaceOnUse">
      <stop offset="0" stop-color="#fff"/>
      <stop offset="1" stop-color="#fff" stop-opacity="0"/>
    </linearGradient>
  </defs>
  <g class="st8">
    <g id="Layer_1">
      <g>
        <g>
          <path class="st5" d="M46.95,77.56h-10.08v-30.24h-8.33v-8.54h26.75v8.54h-8.33v30.24Z"/>
          <path class="st5" d="M107.65,77.56h-12.55l-9.52-14.92h-.1v14.92h-10.08v-38.78h15.07c7.66,0,13.48,3.65,13.48,11.93,0,5.35-2.98,9.98-8.49,10.96l12.19,15.89ZM85.48,56.16h.98c3.29,0,7-.62,7-4.84s-3.7-4.83-7-4.83h-.98v9.67Z"/>
          <path class="st5" d="M136.71,70.82l-2.67,6.74h-10.7l14.92-38.78h11.01l14.61,38.78h-10.75l-2.52-6.74h-13.89ZM143.76,50.76h-.1l-4.17,12.35h8.38l-4.12-12.35Z"/>
          <path class="st5" d="M194.07,62.34l9.41-23.56h10.96l-16.56,38.78h-7.82l-16.31-38.78h10.96l9.36,23.56Z"/>
          <path class="st5" d="M243.5,47.32v6.48h11.37v8.54h-11.37v6.69h11.98v8.54h-22.07v-38.78h22.07v8.54h-11.98Z"/>
          <path class="st5" d="M288.25,69.02h12.09v8.54h-22.17v-38.78h10.08v30.24Z"/>
          <path class="st5" d="M330.18,69.02h12.09v8.54h-22.17v-38.78h10.08v30.24Z"/>
          <g>
            <path class="st5" d="M199.29,118.05h-2.1v-16.83h2.1v16.83Z"/>
            <path class="st5" d="M205.81,100.42l12.63,13.24v-12.43h2.1v17.52l-12.63-13.24v12.54h-2.1v-17.63Z"/>
            <path class="st5" d="M231.64,118.05h-2.1v-14.91h-4v-1.92h10.09v1.92h-3.99v14.91Z"/>
            <path class="st5" d="M240.87,101.22h9.04v1.92h-6.94v4.71h6.74v1.92h-6.74v6.36h6.94v1.92h-9.04v-16.83Z"/>
            <path class="st5" d="M266.54,118.05h-2.54l-4.95-7.12h-.87v7.12h-2.1v-16.83h2.54c1.5,0,3.1.02,4.44.78,1.41.83,2.21,2.41,2.21,4.02,0,2.41-1.61,4.42-4.04,4.71l5.31,7.32ZM258.17,109.19h.67c2.14,0,4.46-.4,4.46-3.08s-2.5-3.01-4.58-3.01h-.56v6.09Z"/>
            <path class="st5" d="M271.56,100.42l12.63,13.24v-12.43h2.1v17.52l-12.63-13.24v12.54h-2.1v-17.63Z"/>
            <path class="st5" d="M295.25,113.83l-1.92,4.22h-2.25l8.03-17.54,8.04,17.54h-2.25l-1.92-4.22h-7.72ZM299.11,105.1l-2.99,6.81h5.98l-2.99-6.81Z"/>
            <path class="st5" d="M314.88,118.05h-2.1v-14.91h-4v-1.92h10.09v1.92h-3.99v14.91Z"/>
            <path class="st5" d="M326.13,118.05h-2.1v-16.83h2.1v16.83Z"/>
            <path class="st5" d="M349.3,109.63c0,5-3.95,8.77-8.82,8.77s-8.82-3.77-8.82-8.77,3.99-8.77,8.82-8.77,8.82,3.95,8.82,8.77ZM347.2,109.63c0-3.7-2.77-6.81-6.72-6.81s-6.72,3.1-6.72,6.81,3.08,6.81,6.72,6.81,6.72-2.97,6.72-6.81Z"/>
            <path class="st5" d="M354.71,100.42l12.63,13.24v-12.43h2.1v17.52l-12.63-13.24v12.54h-2.1v-17.63Z"/>
            <path class="st5" d="M378.4,113.83l-1.92,4.22h-2.25l8.03-17.54,8.04,17.54h-2.25l-1.92-4.22h-7.72ZM382.26,105.1l-2.99,6.81h5.98l-2.99-6.81Z"/>
            <path class="st5" d="M397.37,116.13h5.11v1.92h-7.21v-16.83h2.1v14.91Z"/>
          </g>
          <path class="st5" d="M402.48,57.07c0,12.73-8.87,21.71-21.14,21.71s-21.14-8.97-21.14-21.71c0-11.9,10.14-20.25,21.14-20.25s21.14,8.35,21.14,20.25ZM370.54,57.12c0,6.78,4.87,11.74,10.8,11.74s10.8-4.96,10.8-11.74c0-5.43-4.87-10.38-10.8-10.38s-10.8,4.96-10.8,10.38Z"/>
        </g>
        <path class="st9" d="M504.73,90.83l8.74-12.06,2.74,1.18c-.21-14.38-13.69-23-29.18-28.06-.16.22-.32.45-.48.67-.64.9-1.26,1.84-1.84,2.82-.12.2-.24.41-.36.61,0,.01-.02.03-.03.04-.16.27-.32.55-.47.83-.14.25-.29.5-.42.76-.56,1.02-1.09,2.07-1.61,3.15-.12.26-.25.53-.37.8-.58,1.26-1.13,2.54-1.65,3.85-.09.23-.19.47-.27.71-.11.28-.22.56-.33.84-.1.27-.2.54-.3.81,0,.02-.02.05-.03.07-.16.44-.32.88-.47,1.32-.18.51-.36,1.04-.53,1.56-.05.14-.09.28-.14.43-.15.44-.29.89-.42,1.34-.04.12-.08.24-.12.37-.16.51-.31,1.02-.46,1.53-.18.64-.36,1.27-.54,1.91-.16.58-.31,1.15-.46,1.73-.1.38-.2.76-.3,1.13-.01.04-.03.08-.03.11-.1.36-.21.72-.32,1.08-.1.33-.2.64-.3.96-.23.73-.48,1.44-.73,2.14-.09.25-.19.5-.29.76-.02.05-.04.11-.06.17-.1.26-.2.51-.3.76-.13.33-.27.65-.4.97-.07.17-.14.33-.21.5-.47,1.08-.97,2.11-1.48,3.11,2.53.66,4.73,1.1,6.36,1.41,4.78.92,8.83,2.88,12.13,5.52,4.15,3.32,7.1,7.7,8.79,12.42.38,1.07.69,2.15.94,3.24.29-.22.58-.45.86-.68.02-.01.03-.03.05-.04.17-.14.33-.28.5-.42,1.01-6.86,3.82-20.36,3.82-20.36Z"/>
        <path class="st5" d="M512.23,67.48c-.49,3.97-6.73,7.57-13.46,10.33-8.33,3.41-17.42,5.54-17.42,5.54,0,0-27.96-25.08.52-76.98.01.05.02.09.03.14,3.21,16.18,10.96,26.13,15.18,31.44,4.24,5.33,16.26,20.65,15.15,29.54Z"/>
        <path class="st4" d="M512.23,67.48c-.49,3.97-6.73,7.57-13.46,10.33-8.33,3.41-17.42,5.54-17.42,5.54,0,0-27.96-25.08.52-76.98.01.05.02.09.03.14,3.21,16.18,10.96,26.13,15.18,31.44,4.24,5.33,16.26,20.65,15.15,29.54Z"/>
        <path class="st6" d="M512.23,67.48c-.49,3.97-6.73,7.57-13.46,10.33-2.98-8.85-7.09-18.63-12.23-25.22-8.4-10.77-6.38-34.08-4.64-46.09,3.21,16.18,10.96,26.13,15.18,31.44,4.24,5.33,16.26,20.65,15.15,29.54Z"/>
        <path class="st6" d="M512.23,67.48c-.49,3.97-6.73,7.57-13.46,10.33-2.98-8.85-7.09-18.63-12.23-25.22-8.4-10.77-6.38-34.08-4.64-46.09,3.21,16.18,10.96,26.13,15.18,31.44,4.24,5.33,16.26,20.65,15.15,29.54Z"/>
        <path class="st7" d="M512.23,67.48c-.49,3.97-6.73,7.57-13.46,10.33-2.98-8.85-7.09-18.63-12.23-25.22-8.4-10.77-6.38-34.08-4.64-46.09,3.21,16.18,10.96,26.13,15.18,31.44,4.24,5.33,16.26,20.65,15.15,29.54Z"/>
        <path class="st3" d="M512.23,67.48c-.49,3.97-6.73,7.57-13.46,10.33-8.33,3.41-17.42,5.54-17.42,5.54,0,0-27.96-25.08.52-76.98.01.05.02.09.03.14,3.21,16.18,10.96,26.13,15.18,31.44,4.24,5.33,16.26,20.65,15.15,29.54Z"/>
        <path class="st5" d="M509.63,40.8c-9.7-1.12-17.05,3.59-22.6,11.1-.16.22-.32.45-.48.67-.64.9-1.26,1.84-1.84,2.82-.12.2-.24.41-.37.61,0,.02-.02.03-.03.05-.16.27-.32.55-.47.83-.14.25-.29.5-.42.76-.56,1.02-1.09,2.07-1.61,3.15-.12.26-.25.53-.37.8-.58,1.26-1.13,2.54-1.65,3.85-.09.23-.19.47-.27.71-.11.28-.22.56-.33.84-.1.27-.2.54-.3.81,0,.02-.02.05-.03.07-.16.44-.32.88-.47,1.32-.18.51-.36,1.04-.53,1.56-.05.14-.09.28-.14.43-.15.44-.29.89-.42,1.34-.04.12-.08.24-.12.37-.16.51-.31,1.02-.46,1.53-.18.64-.36,1.27-.54,1.91-.16.58-.31,1.15-.46,1.73-.1.38-.2.76-.3,1.13-.01.04-.03.08-.03.11-.1.36-.21.72-.32,1.08-.1.33-.2.64-.3.96-.23.73-.48,1.44-.73,2.14-.09.26-.19.5-.29.76-.02.05-.04.11-.06.17-.1.26-.19.51-.3.76-.13.33-.26.65-.4.97-.07.17-.14.33-.21.5-.47,1.08-.97,2.11-1.48,3.11,2.53.66,4.73,1.1,6.36,1.41,4.78.92,8.83,2.88,12.13,5.52,4.15,3.32,7.1,7.7,8.79,12.42.38,1.07.69,2.15.94,3.24.29-.22.58-.45.86-.68.02-.01.03-.03.05-.04.19-.15.37-.31.56-.47.66-3.86,1.87-10.52,1.87-10.52l5.44-7.46,6.18-2.8c1.57-4.46,2.44-8.42,2.97-10.97,2.58-12.29,12.03-19.66,21.99-21.6-11.81-10.99-21.63-16.06-29.79-16.99Z"/>
        <path class="st5" d="M499.5,112.33c-.08.06-.15.12-.23.17-.07-.18-.15-.35-.22-.53-2.02-4.58-12.78-1.96-17.16-4.97-3.48-2.39.16-3.91-4.68-4.48-1.64-.19-2.99.18-5.57-.29-.58-.11-6.76-.55-7.38-.68.66-1.01,5.68-9.33,6.29-10.43.11-.2.22-.4.32-.6.14-.25.27-.51.4-.77,2.53.66,4.73,1.1,6.36,1.41,4.78.92,8.83,2.88,12.13,5.52,4.15,3.32,7.1,7.7,8.79,12.42.38,1.07.69,2.15.94,3.24Z"/>
        <path class="st5" d="M499.05,111.98c.08.17.15.35.22.53,0,0,0,0,0,0-.29.22-.59.43-.89.65-.19.13-.38.27-.57.4-.2.13-.39.27-.59.39-.59.39-1.2.76-1.83,1.12-.21.12-.42.24-.63.35-.43.23-.86.46-1.31.68-.22.11-.45.22-.67.32-.23.11-.46.21-.69.31-.74.33-1.5.63-2.28.92-.39.14-.79.28-1.19.42-.31.1-.63.2-.95.3-.24.08-.49.15-.73.22-.26.08-.52.15-.79.22-.27.07-.53.13-.8.2-.27.07-.54.13-.82.19-.27.06-.55.12-.83.17-.28.06-.56.11-.84.16-.57.11-1.14.2-1.73.28-.29.04-.59.08-.88.12-.3.04-.6.07-.9.1-.3.03-.6.06-.91.08-.19.02-.38.03-.57.04-.24.02-.49.04-.74.05-.19.01-.39.02-.58.03-.32.01-.63.03-.96.04-8.52.24-18.79-1.46-31.16-5.97,0,0,.26-.08.71-.27.21-.08.46-.19.75-.31.13-.05.27-.12.42-.18,1.11-.49,2.65-1.23,4.47-2.28.13-.08.27-.16.41-.24,3.63-2.14,8.24-5.48,12.61-10.36.15-.16.29-.33.44-.5.2-.22.39-.45.58-.68.19-.23.39-.47.58-.7.42-.52.83-1.05,1.25-1.6.15-.2.31-.41.46-.63.14-.19.28-.39.42-.59.11-.16.22-.32.33-.47.15-.22.31-.44.45-.67.11-.17.23-.35.34-.52.62.13,1.22.25,1.8.35,2.57.48,4.79.75,6.44.95,4.83.57,9.02,2.24,12.5,4.63,4.38,3.01,7.64,7.17,9.66,11.75Z"/>
        <path class="st0" d="M499.95,111.87c-.08.06-.15.12-.23.17-.07-.18-.15-.35-.22-.53-2.02-4.58-5.06-9.08-9.66-11.75-12.45-7.23-23.38-1.32-24-1.45.66-1.01,4.55-6.55,5.17-7.66.11-.2.22-.4.32-.6.14-.25.27-.51.4-.77,2.53.66,4.73,1.1,6.36,1.41,4.78.92,8.83,2.88,12.13,5.52,4.15,3.32,7.1,7.7,8.79,12.42.38,1.07.69,2.15.94,3.24Z"/>
        <path class="st2" d="M517.13,80.23c-.04.17-.08.35-.11.53-.6,2.88-1.62,7.53-3.6,12.67-.26.46-.53.92-.82,1.39,1.77-3.88,2.76-7.45,3.08-10.75,1.58-16.04-12.62-25.42-29.07-30.8.98-3.27,11.48-11.34,13.52-11.4,14.35,7.25,16.78,25.08,17,38.36Z"/>
        <path class="st2" d="M517.13,80.23c-.04.17-.08.35-.11.53-.6,2.88-1.62,7.53-3.6,12.67-.26.46-.53.92-.82,1.39,1.77-3.88,2.76-7.45,3.08-10.75,1.58-16.04-12.62-25.42-29.07-30.8.98-3.27,11.48-11.34,13.52-11.4,14.35,7.25,16.78,25.08,17,38.36Z"/>
        <path class="st1" d="M499.95,111.87c-.08.06-.15.12-.23.17-.07-.18-.15-.35-.22-.53-2.02-4.58-5.06-9.08-9.66-11.75-12.45-7.23-23.38-1.32-24-1.45.66-1.01,4.55-6.55,5.17-7.66.11-.2.22-.4.32-.6.14-.25.27-.51.4-.77,2.53.66,4.73,1.1,6.36,1.41,4.78.92,8.83,2.88,12.13,5.52,4.15,3.32,7.1,7.7,8.79,12.42.38,1.07.69,2.15.94,3.24Z"/>
        <path class="st5" d="M516.73,82.81c-.37,3.29-1.41,6.85-3.25,10.7-.04.07-.07.14-.1.21-2.47,5.14-6.34,10.8-11.88,17.03t0,0c-.88.72-.93.77-1.81,1.43-.03-.15.04.15,0,0-.23-1.1-.52-2.18-.89-3.26-1.61-4.74-4.5-9.17-8.6-12.55-3.26-2.68-7.29-4.7-12.05-5.7-1.63-.34-3.81-.81-6.34-1.5-15.29-4.22-42.92-16.86-32.27-59.84.9-3.64,2.08-7.51,3.56-11.6,0,0,.09.25.27.71.55,1.4,2,4.69,4.7,8.69,5.12,7.55,14.74,17.57,31.32,21.83,2.93.75,5.86,1.61,8.72,2.6,16.37,5.62,30.42,15.22,28.6,31.23Z"/>
        <path class="st10" d="M516.73,82.81c-6.03-5.12-15.62-9.25-30.66-10.84-44.14-4.67-44.01-41.2-42.69-53.5,1.59,4.03,10.67,24,36.02,30.52,19.69,5.06,39.46,15.02,37.33,33.83Z"/>
        <path class="st10" d="M516.73,82.81c-6.03-5.12-15.62-9.25-30.66-10.84-44.14-4.67-44.01-41.2-42.69-53.5,1.59,4.03,10.67,24,36.02,30.52,19.69,5.06,39.46,15.02,37.33,33.83Z"/>
      </g>
    </g>
  </g>
</svg>