<?xml version="1.0" encoding="UTF-8"?>
<svg xmlns="http://www.w3.org/2000/svg" version="1.1" xmlns:xlink="http://www.w3.org/1999/xlink" viewBox="0 0 118 126.65">
  <!-- Generator: Adobe Illustrator 29.3.1, SVG Export Plug-In . SVG Version: 2.1.0 Build 151)  -->
  <defs>
    <style>
      .st0 {
        fill: #cca35e;
      }

      .st1 {
        fill: url(#linear-gradient4);
      }

      .st1, .st2, .st3, .st4, .st5, .st6, .st7, .st8, .st9, .st10, .st11, .st12 {
        isolation: isolate;
      }

      .st1, .st4, .st7, .st8, .st11, .st12 {
        mix-blend-mode: multiply;
      }

      .st13 {
        fill: #0c5596;
      }

      .st3 {
        fill: url(#linear-gradient2);
      }

      .st3, .st6, .st10 {
        opacity: .8;
      }

      .st4 {
        fill: url(#linear-gradient5);
      }

      .st5 {
        fill: url(#linear-gradient9);
      }

      .st5, .st9 {
        mix-blend-mode: hard-light;
      }

      .st6 {
        fill: url(#linear-gradient1);
      }

      .st7 {
        fill: url(#linear-gradient);
      }

      .st8 {
        fill: url(#linear-gradient7);
      }

      .st9 {
        fill: url(#linear-gradient10);
      }

      .st10 {
        fill: url(#linear-gradient3);
      }

      .st11 {
        fill: url(#linear-gradient6);
      }

      .st12 {
        fill: url(#linear-gradient8);
      }
    </style>
    <linearGradient id="linear-gradient" x1="39.76" y1="83.15" x2="82.98" y2="83.15" gradientTransform="translate(0 128) scale(1 -1)" gradientUnits="userSpaceOnUse">
      <stop offset="0" stop-color="#e0851a"/>
      <stop offset="1" stop-color="#fff" stop-opacity="0"/>
    </linearGradient>
    <linearGradient id="linear-gradient1" x1="11.42" y1="134.77" x2="46.83" y2="85.06" gradientTransform="translate(11.47 121.68) rotate(-1.64) scale(1 -1)" gradientUnits="userSpaceOnUse">
      <stop offset="0" stop-color="#fff"/>
      <stop offset="1" stop-color="#fff" stop-opacity="0"/>
    </linearGradient>
    <linearGradient id="linear-gradient2" x1="11.42" y1="134.77" x2="46.83" y2="85.06" gradientTransform="translate(11.47 121.68) rotate(-1.64) scale(1 -1)" gradientUnits="userSpaceOnUse">
      <stop offset="0" stop-color="#fff"/>
      <stop offset="1" stop-color="#fff" stop-opacity="0"/>
    </linearGradient>
    <linearGradient id="linear-gradient3" x1="13.55" y1="131.77" x2="48.96" y2="82.07" gradientTransform="translate(11.47 121.68) rotate(-1.64) scale(1 -1)" gradientUnits="userSpaceOnUse">
      <stop offset="0" stop-color="#fff"/>
      <stop offset="1" stop-color="#fff" stop-opacity="0"/>
    </linearGradient>
    <linearGradient id="linear-gradient4" x1="70.74" y1="45.75" x2="47.11" y2="95.91" gradientTransform="translate(0 128) scale(1 -1)" gradientUnits="userSpaceOnUse">
      <stop offset=".22" stop-color="#e0851a"/>
      <stop offset="1" stop-color="#fff" stop-opacity="0"/>
    </linearGradient>
    <linearGradient id="linear-gradient5" x1="98.91" y1="2.27" x2="11.08" y2="31.55" gradientTransform="translate(11.47 121.68) rotate(-1.64) scale(1 -1)" gradientUnits="userSpaceOnUse">
      <stop offset="0" stop-color="#e0851a"/>
      <stop offset="1" stop-color="#fff" stop-opacity="0"/>
    </linearGradient>
    <linearGradient id="linear-gradient6" x1="67.01" y1="33.12" x2="58.25" y2="82.4" gradientTransform="translate(11.47 121.68) rotate(-1.64) scale(1 -1)" gradientUnits="userSpaceOnUse">
      <stop offset="0" stop-color="#e0851a"/>
      <stop offset=".91" stop-color="#fff" stop-opacity="0"/>
    </linearGradient>
    <linearGradient id="linear-gradient7" x1="67.01" y1="33.12" x2="58.25" y2="82.4" gradientTransform="translate(11.47 121.68) rotate(-1.64) scale(1 -1)" gradientUnits="userSpaceOnUse">
      <stop offset="0" stop-color="#e0851a"/>
      <stop offset=".91" stop-color="#fff" stop-opacity="0"/>
    </linearGradient>
    <linearGradient id="linear-gradient8" x1="98.91" y1="2.27" x2="11.08" y2="31.55" gradientTransform="translate(11.47 121.68) rotate(-1.64) scale(1 -1)" gradientUnits="userSpaceOnUse">
      <stop offset="0" stop-color="#e0851a"/>
      <stop offset="1" stop-color="#fff" stop-opacity="0"/>
    </linearGradient>
    <linearGradient id="linear-gradient9" x1="3.3" y1="174.01" x2="50.96" y2="56.22" gradientTransform="translate(5.55 125.46) rotate(-.78) scale(1 -1)" gradientUnits="userSpaceOnUse">
      <stop offset="0" stop-color="#fff"/>
      <stop offset="1" stop-color="#fff" stop-opacity="0"/>
    </linearGradient>
    <linearGradient id="linear-gradient10" x1="3.3" y1="174.01" x2="50.96" y2="56.22" gradientTransform="translate(5.55 125.46) rotate(-.78) scale(1 -1)" gradientUnits="userSpaceOnUse">
      <stop offset="0" stop-color="#fff"/>
      <stop offset="1" stop-color="#fff" stop-opacity="0"/>
    </linearGradient>
  </defs>
  <g class="st2">
    <g id="Layer_1">
      <g>
        <path class="st13" d="M75.41,90.82l8.74-12.06,2.74,1.18c-.21-14.38-13.69-23-29.18-28.06-.16.22-.32.45-.48.67-.64.9-1.26,1.84-1.84,2.82-.12.2-.24.41-.36.61,0,0-.02.03-.03.04-.16.27-.32.55-.47.83-.14.25-.29.5-.42.76-.56,1.02-1.09,2.07-1.61,3.15-.12.26-.25.53-.37.8-.58,1.26-1.13,2.54-1.65,3.85-.09.23-.19.47-.27.71-.11.28-.22.56-.33.84-.1.27-.2.54-.3.81,0,.02-.02.05-.03.07-.16.44-.32.88-.47,1.32-.18.51-.36,1.04-.53,1.56-.05.14-.09.28-.14.43-.15.44-.29.89-.42,1.34-.04.12-.08.24-.12.37-.16.51-.31,1.02-.46,1.53-.18.64-.36,1.27-.54,1.91-.16.58-.31,1.15-.46,1.73-.1.38-.2.76-.3,1.13-.01.04-.03.08-.03.11-.1.36-.21.72-.32,1.08-.1.33-.2.64-.3.96-.23.73-.48,1.44-.73,2.14-.09.25-.19.5-.29.76-.02.05-.04.11-.06.17-.1.26-.2.51-.3.76-.13.33-.27.65-.4.97-.07.17-.14.33-.21.5-.47,1.08-.97,2.11-1.48,3.11,2.53.66,4.73,1.1,6.36,1.41,4.78.92,8.83,2.88,12.13,5.52,4.15,3.32,7.1,7.7,8.79,12.42.38,1.07.69,2.15.94,3.24.29-.22.58-.45.86-.68.02-.01.03-.03.05-.04.17-.14.33-.28.5-.42,1.01-6.86,3.82-20.36,3.82-20.36h-.03Z"/>
        <path class="st0" d="M82.91,67.47c-.49,3.97-6.73,7.57-13.46,10.33-8.33,3.41-17.42,5.54-17.42,5.54,0,0-27.96-25.08.52-76.98.01.05.02.09.03.14,3.21,16.18,10.96,26.13,15.18,31.44,4.24,5.33,16.26,20.65,15.15,29.54h0Z"/>
        <path class="st7" d="M82.91,67.47c-.49,3.97-6.73,7.57-13.46,10.33-8.33,3.41-17.42,5.54-17.42,5.54,0,0-27.96-25.08.52-76.98.01.05.02.09.03.14,3.21,16.18,10.96,26.13,15.18,31.44,4.24,5.33,16.26,20.65,15.15,29.54h0Z"/>
        <path class="st6" d="M82.91,67.47c-.49,3.97-6.73,7.57-13.46,10.33-2.98-8.85-7.09-18.63-12.23-25.22-8.4-10.77-6.38-34.08-4.64-46.09,3.21,16.18,10.96,26.13,15.18,31.44,4.24,5.33,16.26,20.65,15.15,29.54Z"/>
        <path class="st3" d="M82.91,67.47c-.49,3.97-6.73,7.57-13.46,10.33-2.98-8.85-7.09-18.63-12.23-25.22-8.4-10.77-6.38-34.08-4.64-46.09,3.21,16.18,10.96,26.13,15.18,31.44,4.24,5.33,16.26,20.65,15.15,29.54Z"/>
        <path class="st10" d="M82.91,67.47c-.49,3.97-6.73,7.57-13.46,10.33-2.98-8.85-7.09-18.63-12.23-25.22-8.4-10.77-6.38-34.08-4.64-46.09,3.21,16.18,10.96,26.13,15.18,31.44,4.24,5.33,16.26,20.65,15.15,29.54Z"/>
        <path class="st1" d="M82.91,67.47c-.49,3.97-6.73,7.57-13.46,10.33-8.33,3.41-17.42,5.54-17.42,5.54,0,0-27.96-25.08.52-76.98.01.05.02.09.03.14,3.21,16.18,10.96,26.13,15.18,31.44,4.24,5.33,16.26,20.65,15.15,29.54h0Z"/>
        <path class="st0" d="M80.31,40.79c-9.7-1.12-17.05,3.59-22.6,11.1-.16.22-.32.45-.48.67-.64.9-1.26,1.84-1.84,2.82-.12.2-.24.41-.37.61,0,.02-.02.03-.03.05-.16.27-.32.55-.47.83-.14.25-.29.5-.42.76-.56,1.02-1.09,2.07-1.61,3.15-.12.26-.25.53-.37.8-.58,1.26-1.13,2.54-1.65,3.85-.09.23-.19.47-.27.71-.11.28-.22.56-.33.84-.1.27-.2.54-.3.81,0,.02-.02.05-.03.07-.16.44-.32.88-.47,1.32-.18.51-.36,1.04-.53,1.56-.05.14-.09.28-.14.43-.15.44-.29.89-.42,1.34-.04.12-.08.24-.12.37-.16.51-.31,1.02-.46,1.53-.18.64-.36,1.27-.54,1.91-.16.58-.31,1.15-.46,1.73-.1.38-.2.76-.3,1.13-.01.04-.03.08-.03.11-.1.36-.21.72-.32,1.08-.1.33-.2.64-.3.96-.23.73-.48,1.44-.73,2.14-.09.26-.19.5-.29.76-.02.05-.04.11-.06.17-.1.26-.19.51-.3.76-.13.33-.26.65-.4.97-.07.17-.14.33-.21.5-.47,1.08-.97,2.11-1.48,3.11,2.53.66,4.73,1.1,6.36,1.41,4.78.92,8.83,2.88,12.13,5.52,4.15,3.32,7.1,7.7,8.79,12.42.38,1.07.69,2.15.94,3.24.29-.22.58-.45.86-.68.02-.01.03-.03.05-.04.19-.15.37-.31.56-.47.66-3.86,1.87-10.52,1.87-10.52l5.44-7.46,6.18-2.8c1.57-4.46,2.44-8.42,2.97-10.97,2.58-12.29,12.03-19.66,21.99-21.6-11.81-10.99-21.63-16.06-29.79-16.99h-.02Z"/>
        <path class="st0" d="M70.18,112.32c-.08.06-.15.12-.23.17-.07-.18-.15-.35-.22-.53-2.02-4.58-12.78-1.96-17.16-4.97-3.48-2.39.16-3.91-4.68-4.48-1.64-.19-2.99.18-5.57-.29-.58-.11-6.76-.55-7.38-.68.66-1.01,5.68-9.33,6.29-10.43.11-.2.22-.4.32-.6.14-.25.27-.51.4-.77,2.53.66,4.73,1.1,6.36,1.41,4.78.92,8.83,2.88,12.13,5.52,4.15,3.32,7.1,7.7,8.79,12.42.38,1.07.69,2.15.94,3.24h.01Z"/>
        <path class="st0" d="M69.73,111.97c.08.17.15.35.22.53h0c-.29.22-.59.43-.89.65-.19.13-.38.27-.57.4-.2.13-.39.27-.59.39-.59.39-1.2.76-1.83,1.12-.21.12-.42.24-.63.35-.43.23-.86.46-1.31.68-.22.11-.45.22-.67.32-.23.11-.46.21-.69.31-.74.33-1.5.63-2.28.92-.39.14-.79.28-1.19.42-.31.1-.63.2-.95.3-.24.08-.49.15-.73.22-.26.08-.52.15-.79.22-.27.07-.53.13-.8.2s-.54.13-.82.19c-.27.06-.55.12-.83.17-.28.06-.56.11-.84.16-.57.11-1.14.2-1.73.28-.29.04-.59.08-.88.12-.3.04-.6.07-.9.1s-.6.06-.91.08c-.19.02-.38.03-.57.04-.24.02-.49.04-.74.05-.19.01-.39.02-.58.03-.32.01-.63.03-.96.04-8.52.24-18.79-1.46-31.16-5.97,0,0,.26-.08.71-.27.21-.08.46-.19.75-.31.13-.05.27-.12.42-.18,1.11-.49,2.65-1.23,4.47-2.28.13-.08.27-.16.41-.24,3.63-2.14,8.24-5.48,12.61-10.36.15-.16.29-.33.44-.5.2-.22.39-.45.58-.68.19-.23.39-.47.58-.7.42-.52.83-1.05,1.25-1.6.15-.2.31-.41.46-.63.14-.19.28-.39.42-.59.11-.16.22-.32.33-.47.15-.22.31-.44.45-.67.11-.17.23-.35.34-.52.62.13,1.22.25,1.8.35,2.57.48,4.79.75,6.44.95,4.83.57,9.02,2.24,12.5,4.63,4.38,3.01,7.64,7.17,9.66,11.75h0Z"/>
        <path class="st4" d="M70.63,111.86c-.08.06-.15.12-.23.17-.07-.18-.15-.35-.22-.53-2.02-4.58-5.06-9.08-9.66-11.75-12.45-7.23-23.38-1.32-24-1.45.66-1.01,4.55-6.55,5.17-7.66.11-.2.22-.4.32-.6.14-.25.27-.51.4-.77,2.53.66,4.73,1.1,6.36,1.41,4.78.92,8.83,2.88,12.13,5.52,4.15,3.32,7.1,7.7,8.79,12.42.38,1.07.69,2.15.94,3.24Z"/>
        <path class="st11" d="M87.81,80.22c-.04.17-.08.35-.11.53-.6,2.88-1.62,7.53-3.6,12.67-.26.46-.53.92-.82,1.39,1.77-3.88,2.76-7.45,3.08-10.75,1.58-16.04-12.62-25.42-29.07-30.8.98-3.27,11.48-11.34,13.52-11.4,14.35,7.25,16.78,25.08,17,38.36Z"/>
        <path class="st8" d="M87.81,80.22c-.04.17-.08.35-.11.53-.6,2.88-1.62,7.53-3.6,12.67-.26.46-.53.92-.82,1.39,1.77-3.88,2.76-7.45,3.08-10.75,1.58-16.04-12.62-25.42-29.07-30.8.98-3.27,11.48-11.34,13.52-11.4,14.35,7.25,16.78,25.08,17,38.36Z"/>
        <path class="st12" d="M70.63,111.86c-.08.06-.15.12-.23.17-.07-.18-.15-.35-.22-.53-2.02-4.58-5.06-9.08-9.66-11.75-12.45-7.23-23.38-1.32-24-1.45.66-1.01,4.55-6.55,5.17-7.66.11-.2.22-.4.32-.6.14-.25.27-.51.4-.77,2.53.66,4.73,1.1,6.36,1.41,4.78.92,8.83,2.88,12.13,5.52,4.15,3.32,7.1,7.7,8.79,12.42.38,1.07.69,2.15.94,3.24Z"/>
        <path class="st0" d="M87.41,82.8c-.37,3.29-1.41,6.85-3.25,10.7-.04.07-.07.14-.1.21-2.47,5.14-6.34,10.8-11.88,17.03q-3.69,4.15,0,0c-.88.72-.93.77-1.81,1.43-.03-.15.04.15,0,0-.23-1.1-.52-2.18-.89-3.26-1.61-4.74-4.5-9.17-8.6-12.55-3.26-2.68-7.29-4.7-12.05-5.7-1.63-.34-3.81-.81-6.34-1.5C27.2,84.94-.43,72.3,10.22,29.32c.9-3.64,2.08-7.51,3.56-11.6,0,0,.09.25.27.71.55,1.4,2,4.69,4.7,8.69,5.12,7.55,14.74,17.57,31.32,21.83,2.93.75,5.86,1.61,8.72,2.6,16.37,5.62,30.42,15.22,28.6,31.23l.02.02Z"/>
        <path class="st5" d="M87.41,82.8c-6.03-5.12-15.62-9.25-30.66-10.84C12.61,67.29,12.74,30.76,14.06,18.46c1.59,4.03,10.67,24,36.02,30.52,19.69,5.06,39.46,15.02,37.33,33.83h0Z"/>
        <path class="st9" d="M87.41,82.8c-6.03-5.12-15.62-9.25-30.66-10.84C12.61,67.29,12.74,30.76,14.06,18.46c1.59,4.03,10.67,24,36.02,30.52,19.69,5.06,39.46,15.02,37.33,33.83h0Z"/>
      </g>
    </g>
  </g>
</svg>